# AST/ASF file generated using VICON BodyLanguage
# -----------------------------------------------
:version 1.10
:name VICON
:units
  mass 1.0
  length 0.45
  angle deg
:documentation
   .ast/.asf automatically generated from VICON data using
   VICON BodyBuilder and BodyLanguage model FoxedUp or BRILLIANT.MOD
:root
   order TX TY TZ RX RY RZ
   axis XYZ
   position 0 0 0  
   orientation 0 0 0 
:bonedata
  begin
     id 1 
     name lhipjoint
     direction 0.573633 -0.743009 0.344793 
     length 2.46257 
     axis 0 0 0  XYZ
  end
  begin
     id 2 
     name lfemur
     direction 0.34202 -0.939693 0  
     length 7.3842  
     axis 0 0 20  XYZ
    dof rx ry rz
    limits (-160.0 20.0)
           (-70.0 70.0)
           (-60.0 70.0)
  end
  begin
     id 3 
     name ltibia
     direction 0.34202 -0.939693 0   
     length 7.50407   
     axis 0 0 20   XYZ
    dof rx
    limits (-10.0 170.0)
  end
  begin
     id 4 
     name lfoot
     direction 0.110749 -0.304281 0.946123   
     length 1.95925   
     axis -90 7.62852e-016 20   XYZ
    dof rx rz
    limits (-45.0 90.0)
           (-70.0 20.0)
  end
  begin
     id 5 
     name ltoes
     direction 1.53554e-011 -4.21843e-011 1   
     length 0.978318   
     axis -90 7.62852e-016 20   XYZ
    dof rx
    limits (-90.0 20.0)
  end
  begin
     id 6 
     name rhipjoint
     direction -0.488109 -0.791693 0.367385   
     length 2.31113  
     axis 0 0 0  XYZ 
  end
  begin
     id 7 
     name rfemur
     direction -0.34202 -0.939693 0   
     length 7.40965   
     axis 0 0 -20   XYZ
    dof rx ry rz
    limits (-160.0 20.0)
           (-70.0 70.0)
           (-70.0 60.0)
  end
  begin
     id 8 
     name rtibia
     direction -0.34202 -0.939693 0   
     length 7.55548   
     axis 0 0 -20   XYZ
    dof rx
    limits (-10.0 170.0)
 end
 begin
     id 9 
     name rfoot
     direction -0.127594 -0.350561 0.927808   
     length 2.07199  
     axis -90 -7.62852e-016 -20   XYZ
    dof rx rz
    limits (-45.0 90.0)
           (-20.0 70.0)
  end
  begin
     id 10 
     name rtoes
     direction -1.53542e-011 -4.21909e-011 1   
     length 1.02667   
     axis -90 -7.62852e-016 -20   XYZ
    dof rx
    limits (-90.0 20.0)
  end
  begin
     id 11 
     name lowerback
     direction -0.0103342 0.997298 -0.0727278   
     length 2.02836   
     axis 0 0 0   XYZ
    dof rx ry rz
    limits (-20.0 45.0)
           (-30.0 30.0)
           (-30.0 30.0)
  end
  begin
     id 12 
     name upperback
     direction 0.0171146 0.999786 -0.011606   
     length 2.03179   
     axis 0 0 0   XYZ
    dof rx ry rz
    limits (-20.0 45.0)
           (-30.0 30.0)
           (-30.0 30.0)
  end
  begin
     id 13 
     name thorax
     direction 0.0216927 0.999513 0.0224343   
     length 2.03882   
     axis 0 0 0   XYZ
    dof rx ry rz
    limits (-20.0 45.0)
           (-30.0 30.0)
           (-30.0 30.0)
  end
  begin
     id 14 
     name lowerneck
     direction 0.000989287 0.993907 0.110221   
     length 1.75428   
     axis 0 0 0   XYZ
    dof rx ry rz
    limits (-20.0 45.0)
           (-30.0 30.0)
           (-30.0 30.0)
  end
  begin
     id 15 
     name upperneck
     direction -0.0172474 0.994813 -0.100253   
     length 1.77058   
     axis 0 0 0   XYZ
    dof rx ry rz
    limits (-20.0 45.0)
           (-30.0 30.0)
           (-30.0 30.0)
  end
  begin
     id 16
     name head
     direction -0.00486455 0.99894 -0.0457663  
     length 1.77427  
     axis 0 0 0   XYZ
    dof rx ry rz
    limits (-20.0 45.0)
           (-30.0 30.0)
           (-30.0 30.0)
  end
  begin
     id 17 
     name lclavicle
     direction 0.927314 0.333734 -0.169441  
     length 3.97584  
     axis 0 0 0   XYZ
    dof ry rz
    limits (-20.0 10.0)
           (0.0 20.0)
  end
  begin
     id 18 
     name lhumerus
     direction 1 -4.48965e-011 -3.25313e-028   
     length 4.76468   
     axis 180 -30 -90   XYZ
    dof rx ry rz
    limits (-60.0 90.0)
           (-90.0 90.0)
           (-90.0 90.0)
  end
  begin
     id 19
     name lradius
     direction 1 -4.48969e-011 -2.8465e-028   
     length 3.52712   
     axis -180 -30 -90   XYZ
    dof rx
    limits (-10.0 170.0)
  end
  begin
     id 20
     name lwrist
     direction 1 -4.4896e-011 -7.78665e-028   
     length 1.76356   
     axis 1.91374e-015 90 90   XYZ
    dof ry
    limits (-180.0 0.0)
 end
  begin
     id 21 
     name lhand
     direction 1 -4.48959e-011 -1.55733e-027   
     length 0.859564   
     axis 9.9371e-016 90 90   XYZ
    dof rx rz
    limits (-90.0 90.0)
           (-45.0 45.0)
  end
  begin
     id 22 
     name lfingers
     direction 1 -4.48965e-011 -3.11466e-027   
     length 0.693002   
     axis 1.98742e-015 90 90   XYZ
    dof rx
    limits (0.0 90.0)
  end
  begin
     id 23
     name lthumb
     direction 0.707107 -6.34948e-011 0.707107   
     length 0.995017   
     axis -90 45 2.85299e-015   XYZ
    dof rx rz
    limits (-45.0 45.0)
           (-45.0 45.0)
  end
  begin
     id 24 
     name rclavicle
     direction -0.899388 0.348209 -0.264294   
     length 3.68366  
     axis 0 0 0   XYZ 
    dof ry rz
    limits (-10.0 20.0)
           (-20.0 0.0)
  end
  begin
     id 25 
     name rhumerus
     direction -1 -4.48965e-011 -3.01536e-027  
     length 4.90577   
     axis 180 30 90   XYZ
    dof rx ry rz
    limits (-90.0 60.0)
           (-90.0 90.0)
           (-90.0 90.0)
  end
  begin
     id 26 
     name rradius
     direction -1 -4.48966e-011 3.93291e-027   
     length 3.42692   
     axis -180 30 90   XYZ
    dof rx
    limits (-10.0 170.0)
  end
  begin
     id 27 
     name rwrist
     direction -1 -4.48969e-011 -7.78665e-028   
     length 1.71346   
     axis 1.91374e-015 -90 -90   XYZ
    dof ry
    limits (-180.0 0.0)
  end
  begin
     id 28
     name rhand
     direction -1 -4.48967e-011 -1.55733e-027   
     length 0.740957   
     axis 9.9371e-016 -90 -90   XYZ
    dof rx rz
    limits (-90.0 90.0)
           (-45.0 45.0)
  end
  begin
     id 29
     name rfingers
     direction -1 -4.48949e-011 -3.11466e-027   
     length 0.597378   
     axis 1.98742e-015 -90 -90   XYZ
    dof rx
    limits (0.0 90.0)
  end
  begin
     id 30
     name rthumb
     direction -0.707107 -6.34931e-011 0.707107   
     length 0.857719   
     axis -90 -45 -2.85299e-015   XYZ
    dof rx rz
    limits (-45.0 45.0)
           (-45.0 45.0)
  end
:hierarchy
  begin
    root lhipjoint rhipjoint lowerback
    lhipjoint lfemur
    lfemur ltibia
    ltibia lfoot
    lfoot ltoes
    rhipjoint rfemur
    rfemur rtibia
    rtibia rfoot
    rfoot rtoes
    lowerback upperback
    upperback thorax
    thorax lowerneck lclavicle rclavicle
    lowerneck upperneck
    upperneck head
    lclavicle lhumerus
    lhumerus lradius
    lradius lwrist
    lwrist lhand lthumb
    lhand lfingers
    rclavicle rhumerus
    rhumerus rradius
    rradius rwrist
    rwrist rhand rthumb
    rhand rfingers
  end

#!OML:ASF E:\I on waltz\AllaLogoMonkeySwing\Project 1\Capture day 1\Session 1\Subject1.ASF
:FULLY-SPECIFIED
:DEGREES
243
root 0.624717 17.6566 27.8176 -5.48074 4.32198 -0.623914
lowerback 10.257 1.06695 -3.91017
upperback 0.267088 1.10191 2.4648
thorax -5.60792 0.682505 4.63844
lowerneck -13.4269 2.5927 1.07874
upperneck 14.5423 3.8757 -3.27548
head 6.73337 1.64839 -0.853699
rclavicle -2.81715e-015 7.15625e-015
rhumerus -44.0764 -28.3812 -64.4189
rradius 28.5332
rwrist -5.53452
rhand -9.55464 -36.8716
rfingers 7.12502
rthumb 16.4125 -66.1973
lclavicle -2.81715e-015 7.15625e-015
lhumerus -41.1484 13.358 82.8056
lradius 57.8089
lwrist -0.697789
lhand -10.7882 -12.4691
lfingers 7.12502
lthumb 15.2246 16.9507
rfemur 2.70351 0.167616 10.405
rtibia 16.364
rfoot -10.2037 -10.5272
rtoes 14.7318
lfemur 2.09 -1.81757 -17.8867
ltibia 11.4111
lfoot -11.4715 -6.67346
ltoes -16.9048
244
root 0.623949 17.6552 27.8693 -5.48685 3.99704 -0.437713
lowerback 10.2113 1.0791 -3.83971
upperback 0.239483 1.12424 2.40512
thorax -5.61098 0.69128 4.53157
lowerneck -13.2002 2.77114 1.20191
upperneck 14.7326 4.1091 -3.31535
head 6.76416 1.7647 -0.865612
rclavicle 3.13707e-016 -1.63003e-014
rhumerus -43.9249 -28.9491 -64.8589
rradius 28.6095
rwrist -6.25792
rhand -9.06412 -37.0279
rfingers 7.12502
rthumb 16.8847 -66.3139
lclavicle 3.13707e-016 -1.63003e-014
lhumerus -40.888 16.3908 81.2043
lradius 55.4536
lwrist 0.069701
lhand -13.1485 -11.4077
lfingers 7.12502
lthumb 12.95 18.1705
rfemur 2.90982 0.190481 10.2568
rtibia 16.3322
rfoot -10.2764 -10.497
rtoes 12.7123
lfemur 2.35685 -1.74825 -18.1252
ltibia 11.3911
lfoot -11.4773 -6.51633
ltoes -17.9294
245
root 0.620467 17.657 27.9168 -5.41939 3.57908 -0.388961
lowerback 10.0877 1.08546 -3.66338
upperback 0.201517 1.15568 2.38259
thorax -5.58056 0.701665 4.40285
lowerneck -12.8696 2.97004 1.43218
upperneck 14.7754 4.36677 -3.48252
head 6.73588 1.891 -0.935678
rclavicle 2.26118e-015 2.5842e-014
rhumerus -43.6867 -29.1519 -65.5831
rradius 28.7381
rwrist -6.45257
rhand -8.92915 -36.9936
rfingers 7.12502
rthumb 17.0146 -66.2684
lclavicle 2.26118e-015 2.5842e-014
lhumerus -40.7558 19.1179 79.6236
lradius 53.0658
lwrist 1.62004
lhand -15.5448 -10.9736
lfingers 7.12502
lthumb 10.6392 18.7371
rfemur 2.92486 0.162855 10.3071
rtibia 16.3463
rfoot -10.2931 -10.4811
rtoes 9.95527
lfemur 2.50687 -1.47418 -18.1074
ltibia 11.4243
lfoot -11.4805 -6.45509
ltoes -18.1396
246
root 0.612518 17.6569 27.9674 -5.41095 3.14016 -0.401745
lowerback 9.95512 1.11379 -3.47887
upperback 0.206543 1.2193 2.39829
thorax -5.50348 0.726499 4.30543
lowerneck -12.6388 3.13006 1.59406
upperneck 14.9057 4.58329 -3.61541
head 6.75043 1.99446 -0.986217
rclavicle 1.42876e-016 -2.46493e-014
rhumerus -43.4051 -29.3744 -66.2265
rradius 28.8179
rwrist -5.47155
rhand -8.33867 -36.8315
rfingers 7.12502
rthumb 17.5829 -66.0564
lclavicle 1.42876e-016 -2.46493e-014
lhumerus -40.6463 21.3626 78.2095
lradius 50.5687
lwrist 3.8846
lhand -17.7855 -11.1045
lfingers 7.12502
lthumb 8.47734 18.7053
rfemur 3.04004 0.407725 10.4524
rtibia 16.1032
rfoot -10.1508 -10.3636
rtoes 10.1367
lfemur 2.81495 -1.19546 -17.9861
ltibia 11.3024
lfoot -11.4947 -6.40355
ltoes -18.2171
247
root 0.602293 17.6554 28.0202 -5.41723 2.73708 -0.318762
lowerback 9.79829 1.14771 -3.40673
upperback 0.214689 1.27642 2.39168
thorax -5.41058 0.750549 4.24986
lowerneck -12.3918 3.29396 1.81791
upperneck 15.0266 4.8134 -3.85945
head 6.76462 2.09904 -1.08167
rclavicle 4.06887e-015 -1.86858e-014
rhumerus -42.9802 -29.3789 -66.9928
rradius 28.6637
rwrist -4.2429
rhand -8.09595 -36.3155
rfingers 7.12502
rthumb 17.8165 -65.5193
lclavicle 4.06887e-015 -1.86858e-014
lhumerus -40.5246 23.404 76.8181
lradius 47.7923
lwrist 6.15893
lhand -19.2944 -11.5799
lfingers 7.12502
lthumb 7.02099 18.2836
rfemur 3.206 0.645631 10.4335
rtibia 15.8698
rfoot -10.1854 -10.0166
rtoes 10.6436
lfemur 3.223 -0.989005 -17.9968
ltibia 11.0507
lfoot -11.6224 -6.23176
ltoes -19.4235
248
root 0.592001 17.6558 28.0699 -5.37084 2.33867 -0.188438
lowerback 9.61686 1.17334 -3.35824
upperback 0.191875 1.31832 2.34879
thorax -5.33442 0.768182 4.17208
lowerneck -12.0724 3.46628 2.06894
upperneck 15.0099 5.05157 -4.13535
head 6.7249 2.2095 -1.19293
rclavicle 1.80149e-014 4.8901e-014
rhumerus -42.4925 -29.0046 -68.0153
rradius 28.46
rwrist -3.13029
rhand -8.64396 -35.5177
rfingers 7.12502
rthumb 17.2891 -64.7687
lclavicle 1.80149e-014 4.8901e-014
lhumerus -40.5225 25.2982 75.3801
lradius 44.9665
lwrist 8.07878
lhand -19.7295 -12.128
lfingers 7.12502
lthumb 6.60093 17.7491
rfemur 3.26214 0.703618 10.3098
rtibia 15.8373
rfoot -10.3453 -9.74726
rtoes 10.0314
lfemur 3.58182 -0.833466 -18.0664
ltibia 10.7582
lfoot -11.6866 -5.94043
ltoes -19.5486
249
root 0.578501 17.6572 28.1184 -5.33325 1.99525 0.0312381
lowerback 9.4956 1.20043 -3.40491
upperback 0.144327 1.34794 2.26611
thorax -5.31812 0.783358 4.10792
lowerneck -11.8393 3.60611 2.11964
upperneck 15.082 5.24265 -4.15361
head 6.71568 2.30549 -1.19207
rclavicle -6.90156e-015 -1.70955e-014
rhumerus -42.023 -28.4527 -69.0942
rradius 28.2658
rwrist -1.83243
rhand -9.35133 -34.9619
rfingers 7.12502
rthumb 16.6082 -64.2712
lclavicle -6.90156e-015 -1.70955e-014
lhumerus -40.69 26.8903 74.0096
lradius 42.2915
lwrist 9.48053
lhand -19.3719 -12.3998
lfingers 7.12502
lthumb 6.94619 17.4663
rfemur 3.35487 0.77475 10.1019
rtibia 15.8301
rfoot -10.5343 -9.48336
rtoes 9.7118
lfemur 3.96414 -0.6874 -18.2326
ltibia 10.4019
lfoot -11.6536 -5.67137
ltoes -18.8675
250
root 0.560035 17.661 28.1676 -5.30474 1.67622 0.0544957
lowerback 9.3874 1.20365 -3.2935
upperback 0.0761296 1.36577 2.23771
thorax -5.32712 0.790241 4.01284
lowerneck -11.6648 3.73937 2.17963
upperneck 15.3034 5.43257 -4.18895
head 6.76541 2.3972 -1.19678
rclavicle -4.84538e-015 -5.20816e-014
rhumerus -41.5637 -27.8704 -70.1399
rradius 28.1014
rwrist -0.442796
rhand -9.62056 -35.0226
rfingers 7.12502
rthumb 16.349 -64.3535
lclavicle -4.84538e-015 -5.20816e-014
lhumerus -40.977 28.0685 72.7707
lradius 39.7566
lwrist 10.0808
lhand -18.5488 -12.0746
lfingers 7.12502
lthumb 7.74065 17.7637
rfemur 3.49343 0.975806 10.1986
rtibia 15.762
rfoot -10.7186 -9.32654
rtoes 9.73623
lfemur 4.35151 -0.518542 -18.1381
ltibia 10.0286
lfoot -11.666 -5.48237
ltoes -19.3382
251
root 0.54235 17.6662 28.2136 -5.1886 1.41348 0.0274731
lowerback 9.20186 1.17332 -3.11098
upperback -0.00726142 1.34791 2.20278
thorax -5.30306 0.777091 3.87628
lowerneck -11.7043 4.10986 3.45812
upperneck 16.0258 6.02819 -5.79983
head 7.11694 2.6103 -1.86215
rclavicle -1.3977e-014 8.74653e-015
rhumerus -41.0766 -27.3607 -71.1323
rradius 27.9094
rwrist 0.867211
rhand -9.59239 -35.1642
rfingers 7.12502
rthumb 16.3761 -64.4929
lclavicle -1.3977e-014 8.74653e-015
lhumerus -41.2656 28.7884 71.7388
lradius 37.3911
lwrist 9.77849
lhand -17.3281 -11.156
lfingers 7.12502
lthumb 8.91871 18.6355
rfemur 3.49968 1.13924 10.3404
rtibia 15.738
rfoot -11.0129 -9.12162
rtoes 9.98226
lfemur 4.5486 -0.456915 -18.0306
ltibia 9.81228
lfoot -11.7365 -5.25535
ltoes -19.7765
252
root 0.523964 17.6655 28.2572 -5.13044 1.26486 0.289985
lowerback 9.0964 1.09668 -3.26516
upperback -0.0749644 1.22546 2.08325
thorax -5.30412 0.720135 3.85572
lowerneck -11.3998 4.14534 2.64647
upperneck 15.7354 5.97764 -4.4746
head 6.8999 2.66094 -1.31406
rclavicle 1.4884e-014 -3.18055e-015
rhumerus -40.5341 -26.7121 -72.1969
rradius 27.6225
rwrist 1.85453
rhand -9.98971 -35.0366
rfingers 7.12502
rthumb 15.9936 -64.3964
lclavicle 1.4884e-014 -3.18055e-015
lhumerus -41.6856 29.4195 70.7412
lradius 35.2485
lwrist 8.31537
lhand -15.7213 -10.8097
lfingers 7.12502
lthumb 10.469 18.9096
rfemur 3.5919 1.21822 10.1061
rtibia 15.694
rfoot -11.377 -8.88839
rtoes 9.64338
lfemur 4.73567 -0.479278 -18.3063
ltibia 9.70825
lfoot -11.8494 -5.00632
ltoes -20.4725
253
root 0.499529 17.6623 28.2996 -5.15069 1.14567 0.477284
lowerback 9.10121 1.21685 -3.28743
upperback -0.117289 1.38184 2.05802
thorax -5.36579 0.799538 3.81983
lowerneck -11.4303 4.09159 2.31109
upperneck 16.0415 5.97072 -4.41203
head 6.9917 2.63844 -1.23781
rclavicle 1.83752e-014 6.75868e-015
rhumerus -40.3914 -27.0425 -72.0705
rradius 27.7893
rwrist 5.53929
rhand -6.6424 -36.185
rfingers 7.12502
rthumb 19.2147 -65.2558
lclavicle 1.83752e-014 6.75868e-015
lhumerus -42.0104 29.8826 70.2403
lradius 33.165
lwrist 5.13708
lhand -13.9514 -12.1058
lfingers 7.12502
lthumb 12.176 17.5198
rfemur 3.80209 1.39898 10.026
rtibia 15.571
rfoot -11.5834 -8.83372
rtoes 9.22543
lfemur 4.97289 -0.518746 -18.4499
ltibia 9.63954
lfoot -11.9731 -4.79293
ltoes -21.277
